<svg xmlns="http://www.w3.org/2000/svg"><defs><font horiz-adv-x="996"><font-face ascent="1536" descent="-512" units-per-em="2048"/><missing-glyph horiz-adv-x="460"/><glyph d="M57 982v100h150v124q3 166 84.5 258.5t223.5 92.5q111 0 233-59l-19-105q-102 52-206 52-199 0-204-239v-124h207v-100h-207v-982h-112v982h-150zM695 0v1082h112v-1082h-112z" horiz-adv-x="969" unicode="&#xfb01;"/><glyph d="M72 982v100h149v138q1 163 75 250t207 87q105 0 318-61v-1496h-111v1421q-123 28-199 28-178 0-178-246v-121h212v-100h-212v-982h-112v982h-149z" horiz-adv-x="984" unicode="&#xfb02;"/><glyph horiz-adv-x="0"/><glyph horiz-adv-x="0"/><glyph horiz-adv-x="460" unicode="&#xd;"/><glyph horiz-adv-x="0"/><glyph horiz-adv-x="460" unicode="&#x20;"/><glyph horiz-adv-x="460" unicode="&#x09;"/><glyph horiz-adv-x="460" unicode="&#xa0;"/><glyph d="M149 71q0 35 19.5 58.5t54.5 23.5 54.5-23.5 19.5-58.5q0-34-19.5-56.5t-54.5-22.5-54.5 22.5-19.5 56.5zM160 1456h116l-7-1050h-103z" horiz-adv-x="438" unicode="&#x21;"/><glyph d="M143 1081l3 455h97v-140l-20-315h-80zM378 1081l4 455h97v-140l-20-315h-81z" horiz-adv-x="588" unicode="&#x22;"/><glyph d="M97 410v95h226l70 437h-232v98h247l67 416h90l-67-416h257l67 416h91l-67-416h188v-98h-204l-70-437h211v-95h-226l-65-410h-91l65 410h-256l-65-410h-90l65 410h-211zM413 505h256l70 437h-256z" horiz-adv-x="1052" unicode="&#x23;"/><glyph d="M116 419h111q0-155 73.5-243.5t205.5-88.5q119 0 191 76t72 196q0 112-59 181t-207 132q-194 75-268.5 172.5t-74.5 249.5q0 163 84 265t226 116v203h94v-204q146-17 226.5-131t80.5-316h-110q0 154-65.5 247.5t-181.5 93.5q-114 0-179-74.5t-65-197.5q0-116 59.5-184t207-128.5 213.5-115.5 98.5-129 32.5-178q0-162-86.5-263.5t-236.5-115.5v-190h-92v189q-168 15-259 129t-91 309z" unicode="&#x24;"/><glyph d="M111 1105v71q0 129 67.5 215t173.5 86q105 0 173.5-85.5t68.5-220.5v-72q0-128-67.5-213.5t-172.5-85.5-174 84.5-69 220.5zM199 1099q0-91 42-151t113-60q70 0 111 60.5t41 155.5v72q0 90-41.5 151t-112.5 61q-70 0-111.5-61t-41.5-155v-73zM319 169l597 1138 68-49-598-1138zM723 285v72q0 129 67.5 214.5t172.5 85.5 174-84.5 69-222.5v-71q0-131-69-215.5t-172-84.5q-104 0-173 84.5t-69 221.5zM810 279q0-91 42-151.5t113-60.5q70 0 111.5 60t41.5 157v73q0 95-41.5 153t-113.5 58q-70 0-111.5-58t-41.5-158v-73z" horiz-adv-x="1309" unicode="&#x25;"/><glyph d="M110 372q0 105 52.5 199.5t196.5 220.5q-80 114-111 195t-31 157q0 155 78 243.5t208 88.5q117 0 192-80.5t75-205.5q0-145-132-276l-141-129 328-458q71 144 71 325h102q0-249-107-416l169-236h-134l-102 142q-66-76-152-119t-180-43q-174 0-278 107t-104 285zM220 372q0-131 74-210t198-79q152 0 270 145l-337 472-10 12-36-33q-159-156-159-307zM328 1148q0-118 112-283l105 96q53 46 86.5 100.5t33.5 128.5q0 78-44.5 130t-118.5 52q-78 0-126-61.5t-48-162.5z" horiz-adv-x="1100" unicode="&#x26;"/><glyph d="M119 1089q5 298 5 447h102v-139l-17-308h-90z" horiz-adv-x="348" unicode="&#x27;"/><glyph d="M136 588q0 225 52.5 436t143 374 190.5 235l26-84q-83-72-152-218.5t-108.5-339-39.5-420.5q0-207 39-398.5t109-341 152-222.5l-26-79q-68 49-138 148t-125.5 236-89 301.5-33.5 372.5z" horiz-adv-x="596" unicode="&#x28;"/><glyph d="M49-391q98 86 175 273 125 305 125 709 0 205-39.5 395.5t-110 343.5-150.5 224l25 79q109-79 206-264 180-345 180-796 0-225-49.5-431.5t-141-371.5-195.5-240z" horiz-adv-x="607" unicode="&#x29;"/><glyph d="M29 1106l32 104 332-123-4 369h104l-8-372 324 127 33-104-333-114 223-293-85-64-214 304-204-302-85 62 217 300z" horiz-adv-x="869" unicode="&#x2a;"/><glyph d="M83 627v115h360v464h113v-464h366v-115h-366v-481h-113v481h-360z" horiz-adv-x="1012" unicode="&#x2b;"/><glyph d="M60-220q91 122 94 254v156h117v-123q0-213-140-340z" horiz-adv-x="392" unicode="&#x2c;"/><glyph d="M59 590v103h404v-103h-404z" horiz-adv-x="529" unicode="&#x2d;"/><glyph d="M145 73q0 36 22.5 60.5t62.5 24.5 63-24.5 23-60.5q0-35-23-58t-63-23-62.5 23-22.5 58z" horiz-adv-x="489" unicode="&#x2e;"/><glyph d="M43-125l511 1581h99l-510-1581h-100z" horiz-adv-x="728" unicode="&#x2f;"/><glyph d="M120 596v256q0 304 95 464t282 160q184 0 280-154.5t99-450.5v-263q0-310-95.5-469t-281.5-159q-184 0-280.5 158.5t-98.5 457.5zM230 594q0-244 68.5-377.5t200.5-133.5q128 0 195.5 126.5t69.5 371.5v287q0 250-66.5 377t-200.5 127q-129 0-196.5-121.5t-70.5-361.5v-295z" unicode="&#x30;"/><glyph d="M168 1162v114l422 185h19v-1461h-112v1309z" unicode="&#x31;"/><glyph d="M106 1036q0 190 105 315t275 125q166 0 263-103.5t97-287.5q0-175-158-409l-64-92-356-481h637v-103h-772v94l414 559q104 143 145 237t41 184q0 137-65.5 217.5t-181.5 80.5q-123 0-196-93.5t-73-242.5h-111z" unicode="&#x32;"/><glyph d="M102 394h111q0-136 77.5-223.5t201.5-87.5q127 0 197.5 79.5t70.5 229.5q0 144-75.5 220.5t-220.5 77.5h-108v104h109q122 1 197.5 77.5t75.5 204.5q0 141-65 218.5t-184 77.5q-116 0-187.5-82.5t-71.5-215.5h-111q0 114 46.5 205.5t132.5 144 191 52.5q164 0 262-106.5t98-297.5q0-108-56.5-196t-151.5-130q110-36 170-126.5t60-223.5q0-190-104-303t-275-113q-109 0-200 51.5t-140.5 144.5-49.5 218z" unicode="&#x33;"/><glyph d="M74 366v71l563 1019h120v-986h187v-104h-187v-366h-111v366h-572zM207 470h439v818l-40-81z" unicode="&#x34;"/><glyph d="M159 383h106q14-147 83-223.5t185-76.5q127 0 192.5 99t65.5 280q0 161-73.5 260.5t-198.5 99.5q-72 0-124-22.5t-106-81.5l-88 28 60 710h615v-114h-520l-41-488q98 80 225 80 167 0 264.5-128.5t97.5-341.5q0-228-96-356t-273-128q-161 0-261 107.5t-113 295.5z" unicode="&#x35;"/><glyph d="M130 524v118q0 401 148 610.5t425 213.5h26v-107h-17q-212-1-333.5-150t-135.5-421q51 81 127 124.5t168 43.5q161 0 256.5-132.5t95.5-346.5q0-223-101-360t-264-137q-175 0-285 150t-110 394zM241 513q0-190 80-309.5t204-119.5q114 0 185 109t71 279q0 171-70.5 275t-190.5 104q-94 0-173.5-67.5t-105.5-166.5v-104z" unicode="&#x36;"/><glyph d="M85 1352v104h808v-70l-520-1386h-116l517 1352h-689z" unicode="&#x37;"/><glyph d="M110 386q0 125 60.5 220t166.5 141q-92 45-144.5 133.5t-52.5 200.5q0 181 98 288t260 107q163 0 261-108t98-287q0-110-53.5-199.5t-145.5-134.5q108-46 169.5-142t61.5-219q0-184-106.5-295t-282.5-111q-178 0-284 110.5t-106 295.5zM220 386q0-139 75.5-221t204.5-82q126 0 201.5 82t75.5 221q0 136-79 222.5t-200 86.5-199.5-85-78.5-224zM252 1082q0-131 69.5-207t177.5-76 177.5 77.5 69.5 205.5q0 125-70.5 207.5t-177.5 82.5q-111 0-178.5-80t-67.5-210z" unicode="&#x38;"/><glyph d="M105 965q0 222 101.5 366.5t269.5 144.5q184 0 286.5-153t102.5-435v-108q0-398-139-592.5t-423-197.5h-30l1 106h32q216 3 328.5 142.5t119.5 425.5q-52-88-131-137.5t-168-49.5q-156 0-253 137t-97 351zM214 970q0-167 71-277.5t185-110.5q94 0 171.5 68.5t113.5 183.5v73q0 215-75.5 339.5t-202.5 124.5q-115 0-189-114t-74-287z" unicode="&#x39;"/><glyph d="M131 73q0 36 22.5 60.5t62.5 24.5 63-24.5 23-60.5q0-35-23-58t-63-23-62.5 23-22.5 58zM133 995q0 36 22.5 60.5t62.5 24.5 63-24.5 23-60.5q0-35-23-58t-63-23-62.5 23-22.5 58z" horiz-adv-x="412" unicode="&#x3a;"/><glyph d="M62-220q91 122 94 254v156h117v-123q0-213-140-340zM122 995q0 36 22.5 60.5t62.5 24.5 63-24.5 23-60.5q0-35-23-58t-63-23-62.5 23-22.5 58z" horiz-adv-x="381" unicode="&#x3b;"/><glyph d="M84 607v99l693 378v-129l-576-300 576-298v-129z" horiz-adv-x="919" unicode="&#x3c;"/><glyph d="M145 417v108h701v-108h-701zM145 828v108h701v-108h-701z" horiz-adv-x="990" unicode="&#x3d;"/><glyph d="M126 230v126l589 303-589 300v127l711-378v-99z" horiz-adv-x="933" unicode="&#x3e;"/><glyph d="M89 1115q2 164 94.5 262.5t235.5 98.5q148 0 232-101.5t84-272.5q0-106-41.5-198.5t-158.5-223.5q-92-95-92-275h-110q0 110 24.5 183.5t107 170 107.5 139.5 38.5 91 13.5 112q0 125-55 195.5t-150 70.5q-96 0-157-68.5t-63-183.5h-110zM321 71q0 35 19 58.5t54 23.5 54.5-23.5 19.5-58.5q0-34-19.5-56.5t-54.5-22.5-54 22.5-19 56.5z" horiz-adv-x="827" unicode="&#x3f;"/><glyph d="M124 478q9 277 102 493t254 333 367 117q212 0 361-107t221-312 62-490q-5-153-48-278.5t-115.5-189.5-167.5-64q-81 0-132.5 49.5t-68.5 139.5q-45-94-108.5-141.5t-136.5-47.5q-118 0-176.5 120t-42.5 326q19 251 122 406.5t242 155.5q107 0 183-65l47-43-44-569q-7-117 24.5-180.5t102.5-63.5q103 0 166 121.5t69 323.5q17 401-127 607.5t-437 206.5q-176 0-316-105.5t-221-298.5-90-444q-11-250 54-442t197-295 313-103q76 0 151.5 22t126.5 57l27-81q-53-40-137.5-64.5t-170.5-24.5q-211 0-362 113t-226.5 324.5-64.5 493.5zM592 285q9-99 46.5-152.5t97.5-53.5q146 0 218 246l39 525q-57 46-127 46-90 0-156.5-87t-98-242.5-19.5-281.5z" horiz-adv-x="1606" unicode="&#x40;"/><glyph d="M45 0l464 1456h106l464-1456h-119l-126 407h-546l-124-407h-119zM321 514h480l-240 781z" horiz-adv-x="1123" unicode="&#x41;"/><glyph d="M172 0v1456h369q197 0 298.5-96.5t101.5-284.5q0-112-52-195t-144-120q106-27 171.5-123.5t65.5-226.5q0-190-104-300t-295-110h-411zM286 106h302q130 0 205 80t75 222q0 132-69.5 210t-193.5 81h-319v-593zM286 804h265q130 0 202 69t72 205q0 139-70.5 204.5t-213.5 65.5h-255v-544z" horiz-adv-x="1097" unicode="&#x42;"/><glyph d="M136 573v316q0 275 124.5 431t340.5 156q204 0 316-117t128-359h-116q-16 198-93.5 283t-234.5 85q-165 0-257-123t-92-357v-312q0-232 89-361t251-129q170 0 246 85t91 283h116q-16-245-132-359.5t-321-114.5q-211 0-333 159.5t-123 433.5z" horiz-adv-x="1158" unicode="&#x43;"/><glyph d="M172 0v1456h343q237 0 375-151.5t142-417.5v-305q0-274-139.5-428t-391.5-154h-329zM286 106h221q195 0 302 120.5t110 344.5v305q0 224-104.5 348t-302.5 124h-226v-1242z" horiz-adv-x="1167" unicode="&#x44;"/><glyph d="M172 0v1456h759v-108h-645v-545h565v-106h-565v-591h650v-106h-764z" horiz-adv-x="1018" unicode="&#x45;"/><glyph d="M172 0v1456h758v-108h-644v-562h560v-108h-560v-678h-114z" horiz-adv-x="1004" unicode="&#x46;"/><glyph d="M147 546v354q0 279 121.5 427.5t346.5 148.5q201 0 315-111t128-320h-114q-18 168-98.5 245.5t-229.5 77.5q-178 0-266.5-118.5t-88.5-347.5v-336q0-228 97.5-354t273.5-126q191 0 312 121v379h-319v107h434v-524q-73-94-184-141.5t-243-47.5q-224 0-352 150t-133 416z" horiz-adv-x="1215" unicode="&#x47;"/><glyph d="M172 0v1456h114v-653h684v653h115v-1456h-115v697h-684v-697h-114z" horiz-adv-x="1259" unicode="&#x48;"/><glyph d="M193 0v1456h114v-1456h-114z" horiz-adv-x="500" unicode="&#x49;"/><glyph d="M77 401h114q0-158 68.5-236.5t189.5-78.5q116 0 186.5 93t71.5 249v1028h115v-1023q0-210-102-331.5t-271-121.5q-178 0-275 110.5t-97 310.5z" horiz-adv-x="987" unicode="&#x4a;"/><glyph d="M172 0v1456h114v-776l160 200 451 576h143l-508-648 547-808h-139l-485 718-169-196v-522h-114z" horiz-adv-x="1124" unicode="&#x4b;"/><glyph d="M172 0v1456h115v-1350h600v-106h-715z" horiz-adv-x="950" unicode="&#x4c;"/><glyph d="M172 0v1456h151l441-1281 443 1281h151v-1456h-114v631l10 635-446-1266h-88l-444 1260 10-625v-635h-114z" horiz-adv-x="1531" unicode="&#x4d;"/><glyph d="M172 0v1456h115l688-1242v1242h113v-1456h-114l-687 1240v-1240h-115z" horiz-adv-x="1262" unicode="&#x4e;"/><glyph d="M132 567v317q0 281 125 436.5t346 155.5q224 0 348-156t124-439v-311q0-282-123.5-436t-346.5-154q-221 0-346.5 154t-126.5 433zM246 570q0-240 95-360.5t264-120.5q174 0 264.5 120t90.5 361v316q0 239-92 359t-265 120q-167 0-261-117.5t-96-351.5v-326z" horiz-adv-x="1208" unicode="&#x4f;"/><glyph d="M172 0v1456h423q193 0 304-116t111-319q0-207-107.5-318t-309.5-111h-307v-592h-114zM286 699h309q144 0 222.5 83.5t78.5 236.5-79.5 241-220.5 88h-310v-649z" horiz-adv-x="1104" unicode="&#x50;"/><glyph d="M128 563v321q0 281 125 436.5t345 155.5q225 0 349-156t124-439v-311q0-195-58-326.5t-165-198.5l219-220-78-79-250 252q-65-18-139-18-222 0-346 154.5t-126 428.5zM242 570q0-240 95-360.5t263-120.5q172 0 262.5 116t93.5 350v331q0 239-92 359t-266 120q-166 0-260-117.5t-96-351.5v-326z" horiz-adv-x="1208" unicode="&#x51;"/><glyph d="M170 0v1456h399q199 0 308.5-113.5t109.5-315.5q0-141-68-247.5t-183-147.5l303-619v-13h-122l-292 606h-340v-606h-115zM285 712h304q129 0 206 88.5t77 226.5q0 153-80 237t-224 84h-283v-636z" horiz-adv-x="1126" unicode="&#x52;"/><glyph d="M93 416h114q0-154 93-242t251-88q138 0 221.5 74t83.5 198q0 122-69.5 192t-259.5 134-279 143q-117 103-117 272 0 167 115 272t297 105q186 0 304-122t118-314h-115q0 147-82.5 237.5t-224.5 90.5q-138 0-217.5-74.5t-79.5-192.5q0-110 75-180t239-124.5 248-113 124-137.5 40-186q0-171-115.5-275.5t-305.5-104.5q-128 0-233.5 52.5t-165 151-59.5 232.5z" horiz-adv-x="1059" unicode="&#x53;"/><glyph d="M63 1348v108h942v-108h-414v-1348h-115v1348h-413z" horiz-adv-x="1067" unicode="&#x54;"/><glyph d="M152 427v1029h114v-1025q0-345 319-345 314 0 318 335v1035h115v-1033q-1-211-113.5-327t-319.5-116q-210 0-321.5 114.5t-111.5 332.5z" horiz-adv-x="1168" unicode="&#x55;"/><glyph d="M45 1456h125l380-1274 3-16 4 16 380 1274h126l-455-1456h-108z" horiz-adv-x="1107" unicode="&#x56;"/><glyph d="M71 1456h117l217-1060 35-216 44 206 261 1070h102l257-1070 43-208 38 218 215 1060h116l-310-1456h-108l-273 1135-29 135-28-135-279-1135h-109z" horiz-adv-x="1579" unicode="&#x57;"/><glyph d="M66 0l415 738-403 718h136l335-614 335 614h136l-401-718 413-738h-137l-346 633-347-633h-136z" horiz-adv-x="1097" unicode="&#x58;"/><glyph d="M39 1456h134l361-792 363 792h131l-438-908v-548h-114v548z" horiz-adv-x="1070" unicode="&#x59;"/><glyph d="M95 0v95l720 1254h-700v107h835v-91l-722-1259h749v-106h-882z" horiz-adv-x="1069" unicode="&#x5a;"/><glyph d="M154-312v1976h285v-104h-174v-1768h174v-104h-285z" horiz-adv-x="461" unicode="&#x5b;"/><glyph d="M59 1456h108l510-1581h-107z" horiz-adv-x="723" unicode="&#x5c;"/><glyph d="M21-208h175v1768h-175v104h286v-1976h-286v104z" horiz-adv-x="461" unicode="&#x5d;"/><glyph d="M82 729l252 727h81l250-727h-106l-185 566-185-566h-107z" horiz-adv-x="756" unicode="&#x5e;"/><glyph d="M21 0h746v-103h-746v103z" horiz-adv-x="789" unicode="&#x5f;"/><glyph d="M103 1525h144l191-280h-109z" horiz-adv-x="585" unicode="&#x60;"/><glyph d="M105 284q0 159 108.5 252t299.5 94h186v151q0 116-57.5 166.5t-168.5 50.5q-103 0-169-60t-66-155l-111 1q0 133 100 225.5t251 92.5q163 0 247-82t84-239v-531q0-159 29-238v-12h-118q-15 52-20 150-50-81-128.5-125.5t-170.5-44.5q-140 0-218 79t-78 225zM217 293q0-206 198-206 98 0 173.5 51t110.5 136v263h-176q-152-2-229-67.5t-77-176.5z" horiz-adv-x="964" unicode="&#x61;"/><glyph d="M148 0v1536h110v-605q91 171 279 171 175 0 261-123.5t89-368.5v-120q0-250-87.5-380t-260.5-130q-191 0-283 165l-5-145h-103zM258 264q34-85 100-131.5t159-46.5q133 0 195.5 96.5t63.5 300.5v108q0 206-61 305t-200 99q-185 0-257-195v-536z" unicode="&#x62;"/><glyph d="M98 470v132q0 248 98.5 374t292.5 126q161 0 254-101.5t99-283.5h-107q-5 134-68 207.5t-178 73.5q-144 0-211.5-97t-67.5-298v-123q0-208 68-302.5t212-94.5q116 0 178 65t67 187h107q-8-166-106-260.5t-246-94.5q-193 0-291.5 123.5t-100.5 366.5z" horiz-adv-x="929" unicode="&#x63;"/><glyph d="M108 479v112q0 254 89 382.5t264 128.5q184 0 275-165v599h111v-1536h-104l-5 139q-91-159-278-159-171 0-260.5 130t-91.5 369zM221 490q0-208 62.5-306t198.5-98q175 0 254 167v561q-75 181-253 181-136 0-198.5-97t-63.5-300v-108z" horiz-adv-x="999" unicode="&#x64;"/><glyph d="M96 461v132q0 238 104 373.5t286 135.5q176 0 268.5-115t94.5-352v-104h-643v-61q0-186 79.5-287t224.5-101q160 0 259 117l58-74q-106-145-322-145-191 0-299 125t-110 356zM207 635h531v29q-8 334-252 334-131 0-201.5-92.5t-77.5-270.5z" horiz-adv-x="937" unicode="&#x65;"/><glyph d="M72 982v100h149v142q2 161 74.5 247t200.5 86q58 0 107-17l-8-102q-44 11-90 11-81 0-126.5-60.5t-45.5-173.5v-133h212v-100h-212v-982h-112v982h-149z" horiz-adv-x="615" unicode="&#x66;"/><glyph d="M109 474v117q0 256 88 383.5t264 127.5q187 0 278-171l6 151h103v-1113q-1-196-93.5-298t-269.5-102q-89 0-179.5 43.5t-137.5 106.5l52 80q111-127 257-127 135 0 196.5 72t62.5 219v172q-91-155-276-155-169 0-258.5 127t-92.5 367zM221 490q0-208 63-306t198-98q180 0 254 171v553q-75 185-252 185-136 0-199-97t-64-300v-108z" unicode="&#x67;"/><glyph d="M148 0v1536h111v-624q48 87 121.5 138.5t168.5 51.5q283 0 290-377v-725h-110v713q-1 145-51 214t-157 69q-87 0-156.5-65.5t-105.5-179.5v-751h-111z" horiz-adv-x="985" unicode="&#x68;"/><glyph d="M144 1394q0 34 19 58t54 24 54.5-24 19.5-58-19.5-57.5-54.5-23.5-54 23.5-19 57.5zM160 0v1082h112v-1082h-112z" horiz-adv-x="431" unicode="&#x69;"/><glyph d="M-61-418l1 101q39-13 74-13 142 0 142 203v1209h111v-1202q0-317-239-317-47 0-89 19zM139 1394q0 34 18.5 58t53.5 24 54.5-24 19.5-58-19.5-57.5-54.5-23.5-53.5 23.5-18.5 57.5z" horiz-adv-x="436" unicode="&#x6a;"/><glyph d="M148 0v1536h112v-977l93 118 335 405h138l-380-457 416-625h-132l-357 541-113-126v-415h-112z" horiz-adv-x="888" unicode="&#x6b;"/><glyph d="M160 0v1536h112v-1536h-112z" horiz-adv-x="431" unicode="&#x6c;"/><glyph d="M144 0v1082h106l3-162q101 182 290 182 209 0 270-199 51 99 131.5 149t175.5 50q292 0 299-376v-726h-111v719q-2 140-52 208.5t-164 68.5q-103-2-174-80t-81-196v-720h-112v716q0 142-52.5 211t-163.5 69q-91 0-157.5-63t-96.5-180v-753h-111z" horiz-adv-x="1561" unicode="&#x6d;"/><glyph d="M148 0v1082h106l3-172q48 88 122.5 140t169.5 52q283 0 290-377v-725h-110v713q-1 145-51 214t-157 69q-87 0-156.5-65.5t-105.5-179.5v-751h-111z" horiz-adv-x="986" unicode="&#x6e;"/><glyph d="M106 468v128q0 234 106 370t289 136q184 0 289.5-134t106.5-369v-115q0-238-106.5-371t-287.5-133-287 130-110 358zM218 484q0-187 75.5-294t209.5-107q137 0 209.5 103t73.5 295v115q0 187-76 294.5t-209 107.5q-129 0-205-105t-78-289v-120z" horiz-adv-x="1005" unicode="&#x6f;"/><glyph d="M148-416v1498h102l5-148q96 168 281 168 175 0 262-124t88-379v-109q0-250-87-380t-260-130q-188 0-281 150v-546h-110zM258 246q75-163 253-163 134 0 198.5 98t65.5 302v108q0 208-64.5 306t-201.5 98q-176 0-251-179v-570z" unicode="&#x70;"/><glyph d="M108 479v112q0 257 89 384t266 127q181 0 274-160l6 140h104v-1498h-112v542q-95-146-273-146-173 0-262.5 127t-91.5 372zM221 490q0-208 63.5-307.5t199.5-99.5q171 0 251 159v583q-81 173-250 173-136 0-199.5-98t-64.5-302v-108z" horiz-adv-x="1003" unicode="&#x71;"/><glyph d="M148 0v1082h109l2-162q79 182 248 182 44 0 67-13l-2-111q-40 7-70 7-92 0-154.5-63t-88.5-175v-747h-111z" horiz-adv-x="619" unicode="&#x72;"/><glyph d="M103 295h112q5-101 67.5-156.5t180.5-55.5q102 0 164 50t62 133q0 70-58 122.5t-196.5 115-193.5 104-81 90.5-26 116q0 125 90 206.5t233 81.5q154 0 246-87t92-230h-111q0 92-63 152.5t-164 60.5q-98 0-155.5-50t-57.5-130q0-65 44-106t190-111q151-66 208-109t86-95.5 29-124.5q0-134-93-213t-245-79q-161 0-260.5 88t-99.5 227z" horiz-adv-x="914" unicode="&#x73;"/><glyph d="M37 982v100h167v276h111v-276h185v-100h-185v-719q0-89 26.5-132.5t88.5-43.5q27 0 80 10l3-100q-38-17-109-17-195 0-200 268v734h-167z" horiz-adv-x="594" unicode="&#x74;"/><glyph d="M145 382v700h110v-697q0-147 52-223t150-76q210 0 269 204v792h112v-1082h-108l-2 129q-92-149-285-149-147 0-222 102t-76 300z" horiz-adv-x="986" unicode="&#x75;"/><glyph d="M51 1082h114l270-908 266 908h114l-337-1082h-88z" horiz-adv-x="869" unicode="&#x76;"/><glyph d="M70 1082h113l193-836 9-60 12 65 221 831h93l219-824 16-85 13 76 187 833h114l-265-1082h-93l-235 860-5 26-4-27-231-859h-94z" horiz-adv-x="1336" unicode="&#x77;"/><glyph d="M59 0l318 551-306 531h130l237-437 237 437h131l-307-531 319-551h-130l-249 455-250-455h-130z" horiz-adv-x="880" unicode="&#x78;"/><glyph d="M45 1082h122l269-899 258 899h119l-381-1255-21-60q-77-204-236-204-38 0-80 14l-1 102q23-7 51-7 72 0 118 43t76 139l46 153z" horiz-adv-x="857" unicode="&#x79;"/><glyph d="M93 0v90l547 887h-532v105h667v-91l-550-888h584v-103h-716z" horiz-adv-x="880" unicode="&#x7a;"/><glyph d="M76 543v106q186 0 191 244v255q6 350 287 449l24-81q-194-74-199-370v-230q0-247-158-320 158-77 158-321v-223q3-294 201-373l-26-81q-281 99-287 446v237q0 262-191 262z" horiz-adv-x="610" unicode="&#x7b;"/><glyph d="M178-270v1726h101v-1726h-101z" horiz-adv-x="452" unicode="&#x7c;"/><glyph d="M29-321q201 80 202 378v218q0 248 164 320-164 72-164 318v233q-5 295-200 370l24 81q145-51 216-165.5t71-299.5v-222q0-261 191-261v-106q-191 0-191-265v-223q-1-184-73-295.5t-214-161.5z" horiz-adv-x="610" unicode="&#x7d;"/><glyph d="M139 448q0 148 70 244t184 96q61 0 117.5-31t133.5-113q58-67 96.5-90t81.5-23q73 0 115.5 64.5t42.5 169.5h95q0-148-71.5-245.5t-181.5-97.5q-100 0-190 83l-116 118q-59 56-123 56-73 0-113.5-59.5t-40.5-170.5z" horiz-adv-x="1216" unicode="&#x7e;"/><glyph d="M137 1021q0 34 19.5 57.5t54.5 23.5 54.5-23.5 19.5-57.5-19.5-58-54.5-24-54.5 24-19.5 58zM159-359l6 1048h103l7-1048h-116z" horiz-adv-x="427" unicode="&#xa1;"/><glyph d="M118 526v36q0 223 88.5 367t241.5 168v221h111v-220q131-18 213.5-121t88.5-260h-107q-6 125-73.5 203t-172.5 78q-133 0-206-115.5t-73-330.5v-32q0-205 73-321t207-116q99 0 168.5 68.5t76.5 183.5h107q-6-135-90.5-233.5t-211.5-117.5v-229h-111v230q-156 25-243 169.5t-87 371.5z" horiz-adv-x="977" unicode="&#xa2;"/><glyph d="M98 644v107h150l-7 288q0 200 94.5 318.5t252.5 118.5q151 0 242-103.5t91-284.5h-114q0 135-62 208t-166 73q-103 0-163-89t-60-241l7-288h286v-107h-283l8-275q2-173-56-263h626v-106h-843v106h79q37 12 59.5 88.5t19.5 174.5l-8 275h-153z" horiz-adv-x="1026" unicode="&#xa3;"/><glyph d="M109 62l158 160q-123 170-123 386 0 228 132 396l-167 171 85 89 167-170q165 140 379 140t379-142l170 173 86-90-170-174q129-172 129-393 0-214-121-382l162-164-86-89-158 160q-78-72-178-112.5t-213-40.5q-226 0-391 152l-155-158zM257 608q0-138 64-256.5t177-188.5 242-70q128 0 240.5 69.5t176.5 189 64 256.5q0 136-64.5 255.5t-176.5 188-240 68.5q-129 0-241.5-69t-177-187.5-64.5-255.5z" horiz-adv-x="1481" unicode="&#xa4;"/><glyph d="M55 1456h132l344-709 344 709h133l-377-749h301v-91h-345v-202h345v-90h-345v-324h-115v324h-342v90h342v202h-342v91h302z" horiz-adv-x="1070" unicode="&#xa5;"/><glyph d="M159-270v772h120v-772h-120zM159 698v758h120v-758h-120z" horiz-adv-x="444" unicode="&#xa6;"/><glyph d="M104-64l111 2q0-154 84.5-241.5t230.5-87.5q132 0 208.5 69.5t76.5 181.5q0 106-65 166t-242 119q-157 48-237.5 100.5t-121 126.5-40.5 179q0 100 49 170t137 104q-72 48-110.5 117t-38.5 177q0 162 109.5 259.5t289.5 97.5q188 0 294-112.5t106-318.5h-111q0 149-80.5 238t-208.5 89q-134 0-210.5-67.5t-76.5-182.5q0-111 59.5-169.5t249.5-123.5q165-51 243.5-101.5t116-121.5 37.5-175q0-99-51.5-168.5t-142.5-103.5q76-47 116.5-117.5t40.5-179.5q0-164-106.5-260.5t-290.5-96.5q-199 0-312.5 113t-113.5 318zM220 553q0-80 27-127t92.5-85 210.5-88l106-38q89 13 143 71t54 142q0 106-68.5 169t-262.5 130q-68 20-121 43-89-15-135-72t-46-145z" horiz-adv-x="1083" unicode="&#xa7;"/><glyph d="M143 1395q0 35 21.5 58.5t60.5 23.5q38 0 60.5-23.5t22.5-58.5q0-34-22.5-57t-60.5-23q-39 0-60.5 23t-21.5 57zM580 1394q0 35 22 58.5t60 23.5q39 0 61-23.5t22-58.5q0-34-22-57t-61-23q-38 0-60 23t-22 57z" horiz-adv-x="881" unicode="&#xa8;"/><glyph d="M107 729q0 202 93.5 375t259 272.5 357.5 99.5 357-99.5 258.5-272.5 93.5-375q0-197-90-369t-255.5-276.5-363.5-104.5q-197 0-362.5 103.5t-256.5 275.5-91 371zM192 729q0-177 82-330.5t229-243 314-89.5q163 0 308 86.5t230.5 240.5 85.5 336q0 178-83 330t-228.5 240.5-312.5 88.5q-171 0-317-90t-227-241.5-81-327.5zM474 685v92q0 174 92 280.5t241 106.5 232-80.5 83-232.5h-99q0 221-216 221-108 0-171-81.5t-63-216.5v-95q0-132 62.5-213t171.5-81q105 0 160 52t55 169h99q0-152-82-233t-232-81-241.5 106-91.5 287z" horiz-adv-x="1637" unicode="&#xa9;"/><glyph d="M150 909q0 110 70 170.5t208 60.5h112v61q0 177-129 177-72 0-113.5-35t-41.5-107l-99 7q0 104 71.5 168.5t182.5 64.5q105 0 167-71.5t62-205.5v-315q0-92 22-179h-102l-17 91q-27-42-73.5-73.5t-110.5-31.5q-101 0-155 59.5t-54 158.5zM250 913q0-125 129-125 40 0 86.5 27t74.5 72v170h-105q-185 0-185-144z" horiz-adv-x="802" unicode="&#xaa;"/><glyph d="M120 528v19l248 379h93l-229-389 229-389h-93zM383 528v19l248 379h93l-229-389 229-389h-93z" horiz-adv-x="828" unicode="&#xab;"/><glyph d="M124 668v109h686v-392h-112v283h-574z" horiz-adv-x="981" unicode="&#xac;"/><glyph d="M59 590v103h404v-103h-404z" horiz-adv-x="529" unicode="&#xad;"/><glyph d="M102 729q0 202 93.5 375t259 272.5 357.5 99.5 357.5-99.5 259-272.5 93.5-375q0-199-91-371t-256.5-275.5-362.5-103.5-362.5 103.5-256.5 275.5-91 371zM187 729q0-180 84-333.5t229.5-241.5 311.5-88q167 0 312.5 88.5t228.5 242 83 332.5q0 176-81 327.5t-226.5 241.5-316.5 90q-168 0-312.5-87.5t-228.5-239.5-84-332zM552 321v839h258q147 0 226-61.5t79-186.5q0-132-140-197 127-46 127-206 0-129 17-172v-16h-102q-14 36-14 182 0 89-37.5 126t-127.5 37h-188v-345h-98zM650 758h181q81 0 133.5 41.5t52.5 110.5q0 84-43.5 120.5t-149.5 38.5h-174v-311z" horiz-adv-x="1642" unicode="&#xae;"/><glyph d="M111 1357v99h570v-99h-570z" horiz-adv-x="784" unicode="&#xaf;"/><glyph d="M143 1226q0 103 73 176.5t172 73.5 170.5-73.5 71.5-176.5-70.5-175-171.5-72-173 72-72 175zM233 1226q0-65 44-110t111-45q68 0 110 45.5t42 109.5q0 68-43 113t-109 45q-65 0-110-45t-45-113z" horiz-adv-x="774" unicode="&#xb0;"/><glyph d="M92 726v104h344v437h102v-437h324v-104h-324v-437h-102v437h-344zM128 0v103h702v-103h-702z" horiz-adv-x="953" unicode="&#xb1;"/><glyph d="M82 1215q0 109 67.5 179.5t173.5 70.5 167-61.5 61-165.5q0-56-28.5-115t-104.5-147l-197-222h362v-89h-484v76l264 309q91 112 91 187 0 62-33 100t-96 38q-70 0-108-43.5t-38-116.5h-97z" horiz-adv-x="664" unicode="&#xb2;"/><glyph d="M78 884h98q0-62 42-102t109-40q70 0 108 38t38 104q0 141-165 141h-64v82h69q68 1 107 38t39 96q0 63-36 98.5t-99 35.5q-61 0-99.5-36t-38.5-94h-97q0 94 65.5 157t168.5 63q110 0 171.5-60.5t61.5-161.5q0-57-31.5-104t-90.5-71q135-42 135-188 0-103-67.5-164.5t-177.5-61.5q-109 0-177.5 63.5t-68.5 166.5z" horiz-adv-x="664" unicode="&#xb3;"/><glyph d="M124 1245l191 280h145l-231-280h-105z" horiz-adv-x="576" unicode="&#xb4;"/><glyph d="M155-416v1498h110v-655q3-168 53.5-256t160.5-88q102 0 165.5 52t90.5 164v783h112v-1082h-101l-7 145q-80-165-253-165-149 0-221 121v-517h-110z" horiz-adv-x="1001" unicode="&#xb5;"/><glyph d="M87 988q0 209 108.5 337t296.5 131h206v-1456h-112v520h-92q-125 1-217 59t-141 164-49 245z" horiz-adv-x="862" unicode="&#xb6;"/><glyph d="M154 717q0 36 20 60.5t56 24.5 56.5-24.5 20.5-60.5q0-35-20.5-58.5t-56.5-23.5-56 23.5-20 58.5z" horiz-adv-x="467" unicode="&#xb7;"/><glyph d="M105-356q71 0 117.5 31t46.5 88q0 51-29.5 75.5t-116.5 33.5l25 128h85l-10-64q136-22 136-171 0-91-66-145.5t-182-54.5z" horiz-adv-x="460" unicode="&#xb8;"/><glyph d="M125 1260v92l277 107h13v-790h-98v660z" horiz-adv-x="664" unicode="&#xb9;"/><glyph d="M131 1038v94q0 154 76 249t199 95q125 0 200-95.5t75-252.5v-95q0-154-75.5-248.5t-198.5-94.5-199.5 93.5-76.5 254.5zM231 1033q0-115 46.5-180.5t129.5-65.5q79 0 126 64t48 179v102q0 112-47 179t-128 67-128-67-47-184v-94z" horiz-adv-x="816" unicode="&#xba;"/><glyph d="M114 161l229 389-229 394h95l248-384v-19l-248-380h-95zM387 161l229 389-229 394h95l248-384v-19l-248-380h-95z" horiz-adv-x="824" unicode="&#xbb;"/><glyph d="M112 1255v92l277 107h13v-790h-98v660zM306 177l597 1138 67-49-598-1138zM665 254l330 535h101v-513h104v-90h-104v-186h-96v186h-332zM767 276h233v376l-24-45z" horiz-adv-x="1289" unicode="&#xbc;"/><glyph d="M101 1255v92l277 107h13v-790h-98v660zM269 177l597 1138 67-49-598-1138zM732 550q0 109 67.5 179.5t173.5 70.5 167-61.5 61-165.5q0-56-28.5-115t-104.5-147l-197-222h362v-89h-484v76l264 309q91 112 91 187 0 62-33 100t-96 38q-70 0-108-43.5t-38-116.5h-97z" horiz-adv-x="1347" unicode="&#xbd;"/><glyph d="M118 884h98q0-62 42-102t109-40q70 0 108 38t38 104q0 141-165 141h-64v82h69q68 1 107 38t39 96q0 63-36 98.5t-99 35.5q-61 0-99.5-36t-38.5-94h-97q0 94 65.5 157t168.5 63q110 0 171.5-60.5t61.5-161.5q0-57-31.5-104t-90.5-71q135-42 135-188 0-103-67.5-164.5t-177.5-61.5q-109 0-177.5 63.5t-68.5 166.5zM424 177l597 1138 67-49-598-1138zM757 254l330 535h101v-513h104v-90h-104v-186h-96v186h-332zM859 276h233v376l-24-45z" horiz-adv-x="1376" unicode="&#xbe;"/><glyph d="M91-10q0 111 45.5 213.5t162.5 233.5q43 45 60.5 96.5t17.5 153.5h112q-2-126-25.5-186t-100-150.5-105-139-43-101-14.5-118.5q0-128 55-197t159-69q96 0 155.5 70t59.5 184h111q-2-169-91.5-266t-234.5-97q-152 0-238 100t-86 273zM354 1021q0 34 19.5 57t54.5 23 54-23 19-57q0-35-19-58.5t-54-23.5-54.5 23.5-19.5 58.5z" horiz-adv-x="834" unicode="&#xbf;"/><glyph d="M45 0l464 1456h106l464-1456h-119l-126 407h-546l-124-407h-119zM303 1840h144l191-280h-109zM321 514h480l-240 781z" horiz-adv-x="1123" unicode="&#xc0;"/><glyph d="M45 0l464 1456h106l464-1456h-119l-126 407h-546l-124-407h-119zM321 514h480l-240 781zM493 1560l191 280h145l-231-280h-105z" horiz-adv-x="1123" unicode="&#xc1;"/><glyph d="M45 0l464 1456h106l464-1456h-119l-126 407h-546l-124-407h-119zM321 514h480l-240 781zM328 1573v12l201 256h69l204-258v-10h-100l-138 182-138-182h-98z" horiz-adv-x="1123" unicode="&#xc2;"/><glyph d="M45 0l464 1456h106l464-1456h-119l-126 407h-546l-124-407h-119zM282 1590q0 95 47.5 154.5t118.5 59.5q31 0 55-10.5t69.5-46.5 65-44 43.5-8q38 0 64.5 33t26.5 88l80-6q0-95-48-155t-118-60q-44 0-72.5 17t-52 38-48 38-60.5 17q-38 0-64-31.5t-26-86.5zM321 514h480l-240 781z" horiz-adv-x="1123" unicode="&#xc3;"/><glyph d="M45 0l464 1456h106l464-1456h-119l-126 407h-546l-124-407h-119zM271 1710q0 35 21.5 58.5t60.5 23.5q38 0 60.5-23.5t22.5-58.5q0-34-22.5-57t-60.5-23q-39 0-60.5 23t-21.5 57zM321 514h480l-240 781zM708 1709q0 35 22 58.5t60 23.5q39 0 61-23.5t22-58.5q0-34-22-57t-61-23q-38 0-60 23t-22 57z" horiz-adv-x="1123" unicode="&#xc4;"/><glyph d="M45 0l464 1456h106l464-1456h-119l-126 407h-546l-124-407h-119zM321 514h480l-240 781zM372 1716q0 80 56 136t137 56 137-56 56-136q0-79-55-133t-138-54-138 54-55 133zM449 1716q0-49 33-82t83-33q48 0 82.5 32.5t34.5 82.5q0 53-34 86t-83 33q-51 0-83.5-34t-32.5-85z" horiz-adv-x="1123" unicode="&#xc5;"/><glyph d="M29 0l740 1456h740v-104h-583l19-542h495v-104h-491l21-603h590v-103h-697l-14 388h-493l-191-388h-136zM412 503h433l-29 821z" horiz-adv-x="1614" unicode="&#xc6;"/><glyph d="M136 573v316q0 275 124.5 431t340.5 156q204 0 316-117t128-359h-116q-16 198-93.5 283t-234.5 85q-165 0-257-123t-92-357v-312q0-232 89-361t251-129q170 0 246 85t91 283h116q-16-245-132-359.5t-321-114.5q-211 0-333 159.5t-123 433.5zM508-365q71 0 117.5 31t46.5 88q0 51-29.5 75.5t-116.5 33.5l25 128h85l-10-64q136-22 136-171 0-91-66-145.5t-182-54.5z" horiz-adv-x="1158" unicode="&#xc7;"/><glyph d="M172 0v1456h759v-108h-645v-545h565v-106h-565v-591h650v-106h-764zM279 1846h144l191-280h-109z" horiz-adv-x="1018" unicode="&#xc8;"/><glyph d="M172 0v1456h759v-108h-645v-545h565v-106h-565v-591h650v-106h-764zM469 1566l191 280h145l-231-280h-105z" horiz-adv-x="1018" unicode="&#xc9;"/><glyph d="M172 0v1456h759v-108h-645v-545h565v-106h-565v-591h650v-106h-764zM304 1579v12l201 256h69l204-258v-10h-100l-138 182-138-182h-98z" horiz-adv-x="1018" unicode="&#xca;"/><glyph d="M172 0v1456h759v-108h-645v-545h565v-106h-565v-591h650v-106h-764zM247 1716q0 35 21.5 58.5t60.5 23.5q38 0 60.5-23.5t22.5-58.5q0-34-22.5-57t-60.5-23q-39 0-60.5 23t-21.5 57zM684 1715q0 35 22 58.5t60 23.5q39 0 61-23.5t22-58.5q0-34-22-57t-61-23q-38 0-60 23t-22 57z" horiz-adv-x="1018" unicode="&#xcb;"/><glyph d="M-10 1846h144l191-280h-109zM193 0v1456h114v-1456h-114z" horiz-adv-x="500" unicode="&#xcc;"/><glyph d="M179 1566l191 280h145l-231-280h-105zM193 0v1456h114v-1456h-114z" horiz-adv-x="500" unicode="&#xcd;"/><glyph d="M15 1579v12l201 256h69l204-258v-10h-100l-138 182-138-182h-98zM193 0v1456h114v-1456h-114z" horiz-adv-x="500" unicode="&#xce;"/><glyph d="M-42 1716q0 35 21.5 58.5t60.5 23.5q38 0 60.5-23.5t22.5-58.5q0-34-22.5-57t-60.5-23q-39 0-60.5 23t-21.5 57zM193 0v1456h114v-1456h-114zM395 1715q0 35 22 58.5t60 23.5q39 0 61-23.5t22-58.5q0-34-22-57t-61-23q-38 0-60 23t-22 57z" horiz-adv-x="500" unicode="&#xcf;"/><glyph d="M44 689v104h158v663h343q237 0 375-151.5t142-417.5v-305q0-274-139.5-428t-391.5-154h-329v689h-158zM316 106h219q197 0 304 120.5t110 344.5v305q0 224-104.5 348t-302.5 124h-226v-555h246v-104h-246v-583z" horiz-adv-x="1197" unicode="&#xd0;"/><glyph d="M172 0v1456h115l688-1242v1242h113v-1456h-114l-687 1240v-1240h-115zM348 1590q0 95 47.5 154.5t118.5 59.5q31 0 55-10.5t69.5-46.5 65-44 43.5-8q38 0 64.5 33t26.5 88l80-6q0-95-48-155t-118-60q-44 0-72.5 17t-52 38-48 38-60.5 17q-38 0-64-31.5t-26-86.5z" horiz-adv-x="1262" unicode="&#xd1;"/><glyph d="M132 567v317q0 281 125 436.5t346 155.5q224 0 348-156t124-439v-311q0-282-123.5-436t-346.5-154q-221 0-346.5 154t-126.5 433zM246 570q0-240 95-360.5t264-120.5q174 0 264.5 120t90.5 361v316q0 239-92 359t-265 120q-167 0-261-117.5t-96-351.5v-326zM342 1851h144l191-280h-109z" horiz-adv-x="1208" unicode="&#xd2;"/><glyph d="M132 567v317q0 281 125 436.5t346 155.5q224 0 348-156t124-439v-311q0-282-123.5-436t-346.5-154q-221 0-346.5 154t-126.5 433zM246 570q0-240 95-360.5t264-120.5q174 0 264.5 120t90.5 361v316q0 239-92 359t-265 120q-167 0-261-117.5t-96-351.5v-326zM532 1571l191 280h145l-231-280h-105z" horiz-adv-x="1208" unicode="&#xd3;"/><glyph d="M132 567v317q0 281 125 436.5t346 155.5q224 0 348-156t124-439v-311q0-282-123.5-436t-346.5-154q-221 0-346.5 154t-126.5 433zM246 570q0-240 95-360.5t264-120.5q174 0 264.5 120t90.5 361v316q0 239-92 359t-265 120q-167 0-261-117.5t-96-351.5v-326zM367 1584v12l201 256h69l204-258v-10h-100l-138 182-138-182h-98z" horiz-adv-x="1208" unicode="&#xd4;"/><glyph d="M132 567v317q0 281 125 436.5t346 155.5q224 0 348-156t124-439v-311q0-282-123.5-436t-346.5-154q-221 0-346.5 154t-126.5 433zM246 570q0-240 95-360.5t264-120.5q174 0 264.5 120t90.5 361v316q0 239-92 359t-265 120q-167 0-261-117.5t-96-351.5v-326zM321 1601q0 95 47.5 154.5t118.5 59.5q31 0 55-10.5t69.5-46.5 65-44 43.5-8q38 0 64.5 33t26.5 88l80-6q0-95-48-155t-118-60q-44 0-72.5 17t-52 38-48 38-60.5 17q-38 0-64-31.5t-26-86.5z" horiz-adv-x="1208" unicode="&#xd5;"/><glyph d="M132 567v317q0 281 125 436.5t346 155.5q224 0 348-156t124-439v-311q0-282-123.5-436t-346.5-154q-221 0-346.5 154t-126.5 433zM246 570q0-240 95-360.5t264-120.5q174 0 264.5 120t90.5 361v316q0 239-92 359t-265 120q-167 0-261-117.5t-96-351.5v-326zM310 1721q0 35 21.5 58.5t60.5 23.5q38 0 60.5-23.5t22.5-58.5q0-34-22.5-57t-60.5-23q-39 0-60.5 23t-21.5 57zM747 1720q0 35 22 58.5t60 23.5q39 0 61-23.5t22-58.5q0-34-22-57t-61-23q-38 0-60 23t-22 57z" horiz-adv-x="1208" unicode="&#xd6;"/><glyph d="M97 185l299 363-288 350 73 82 285-347 286 347 72-82-288-350 299-363-73-81-296 359-296-359z" horiz-adv-x="944" unicode="&#xd7;"/><glyph d="M124 657v147q0 199 59 352t168.5 236.5 251.5 83.5q185 0 312-137l88 166h93l-126-238q110-178 113-450v-167q0-200-58.5-352.5t-167.5-235-252-82.5q-153 0-267 94l-83-158h-93l116 219q-154 186-154 522zM238 650q0-259 97-407l524 990q-97 132-256 132-169 0-267-151t-98-414v-150zM391 174q89-85 214-85 171 0 267.5 150t96.5 416v151q0 200-62 343z" horiz-adv-x="1208" unicode="&#xd8;"/><glyph d="M152 427v1029h114v-1025q0-345 319-345 314 0 318 335v1035h115v-1033q-1-211-113.5-327t-319.5-116q-210 0-321.5 114.5t-111.5 332.5zM329 1840h144l191-280h-109z" horiz-adv-x="1168" unicode="&#xd9;"/><glyph d="M152 427v1029h114v-1025q0-345 319-345 314 0 318 335v1035h115v-1033q-1-211-113.5-327t-319.5-116q-210 0-321.5 114.5t-111.5 332.5zM519 1560l191 280h145l-231-280h-105z" horiz-adv-x="1168" unicode="&#xda;"/><glyph d="M152 427v1029h114v-1025q0-345 319-345 314 0 318 335v1035h115v-1033q-1-211-113.5-327t-319.5-116q-210 0-321.5 114.5t-111.5 332.5zM354 1573v12l201 256h69l204-258v-10h-100l-138 182-138-182h-98z" horiz-adv-x="1168" unicode="&#xdb;"/><glyph d="M152 427v1029h114v-1025q0-345 319-345 314 0 318 335v1035h115v-1033q-1-211-113.5-327t-319.5-116q-210 0-321.5 114.5t-111.5 332.5zM297 1710q0 35 21.5 58.5t60.5 23.5q38 0 60.5-23.5t22.5-58.5q0-34-22.5-57t-60.5-23q-39 0-60.5 23t-21.5 57zM734 1709q0 35 22 58.5t60 23.5q39 0 61-23.5t22-58.5q0-34-22-57t-61-23q-38 0-60 23t-22 57z" horiz-adv-x="1168" unicode="&#xdc;"/><glyph d="M39 1456h134l361-792 363 792h131l-438-908v-548h-114v548zM464 1554l191 280h145l-231-280h-105z" horiz-adv-x="1070" unicode="&#xdd;"/><glyph d="M171 0v1456h111v-303h267q181-1 288-113.5t107-301.5q0-188-106.5-301.5t-293.5-113.5h-262v-323h-111zM282 427h265q132 0 209 86t77 223q0 140-76 226t-207 87h-268v-622z" horiz-adv-x="1059" unicode="&#xde;"/><glyph d="M145 0v1127q0 199 81.5 308t226.5 109q131 0 212.5-83.5t81.5-224.5q0-60-11.5-108t-42-113-40.5-104-10-87q0-56 35-108.5t114.5-123 116.5-139 37-146.5q0-147-88.5-237t-228.5-90q-71 0-148 24.5t-108 55.5l30 103q32-30 94.5-55.5t118.5-25.5q99 0 159 63t60 161q0 60-35 114.5t-113.5 124-116.5 136.5-38 145q0 67 17 116t37 91.5 37 88 17 107.5q0 91-50.5 151.5t-127.5 60.5q-203 0-206-306v-1135h-111z" horiz-adv-x="1051" unicode="&#xdf;"/><glyph d="M105 284q0 159 108.5 252t299.5 94h186v151q0 116-57.5 166.5t-168.5 50.5q-103 0-169-60t-66-155l-111 1q0 133 100 225.5t251 92.5q163 0 247-82t84-239v-531q0-159 29-238v-12h-118q-15 52-20 150-50-81-128.5-125.5t-170.5-44.5q-140 0-218 79t-78 225zM217 293q0-206 198-206 98 0 173.5 51t110.5 136v263h-176q-152-2-229-67.5t-77-176.5zM246 1525h144l191-280h-109z" horiz-adv-x="964" unicode="&#xe0;"/><glyph d="M105 284q0 159 108.5 252t299.5 94h186v151q0 116-57.5 166.5t-168.5 50.5q-103 0-169-60t-66-155l-111 1q0 133 100 225.5t251 92.5q163 0 247-82t84-239v-531q0-159 29-238v-12h-118q-15 52-20 150-50-81-128.5-125.5t-170.5-44.5q-140 0-218 79t-78 225zM217 293q0-206 198-206 98 0 173.5 51t110.5 136v263h-176q-152-2-229-67.5t-77-176.5zM436 1245l191 280h145l-231-280h-105z" horiz-adv-x="964" unicode="&#xe1;"/><glyph d="M105 284q0 159 108.5 252t299.5 94h186v151q0 116-57.5 166.5t-168.5 50.5q-103 0-169-60t-66-155l-111 1q0 133 100 225.5t251 92.5q163 0 247-82t84-239v-531q0-159 29-238v-12h-118q-15 52-20 150-50-81-128.5-125.5t-170.5-44.5q-140 0-218 79t-78 225zM217 293q0-206 198-206 98 0 173.5 51t110.5 136v263h-176q-152-2-229-67.5t-77-176.5zM271 1258v12l201 256h69l204-258v-10h-100l-138 182-138-182h-98z" horiz-adv-x="964" unicode="&#xe2;"/><glyph d="M105 284q0 159 108.5 252t299.5 94h186v151q0 116-57.5 166.5t-168.5 50.5q-103 0-169-60t-66-155l-111 1q0 133 100 225.5t251 92.5q163 0 247-82t84-239v-531q0-159 29-238v-12h-118q-15 52-20 150-50-81-128.5-125.5t-170.5-44.5q-140 0-218 79t-78 225zM217 293q0-206 198-206 98 0 173.5 51t110.5 136v263h-176q-152-2-229-67.5t-77-176.5zM225 1275q0 95 47.5 154.5t118.5 59.5q31 0 55-10.5t69.5-46.5 65-44 43.5-8q38 0 64.5 33t26.5 88l80-6q0-95-48-155t-118-60q-44 0-72.5 17t-52 38-48 38-60.5 17q-38 0-64-31.5t-26-86.5z" horiz-adv-x="964" unicode="&#xe3;"/><glyph d="M105 284q0 159 108.5 252t299.5 94h186v151q0 116-57.5 166.5t-168.5 50.5q-103 0-169-60t-66-155l-111 1q0 133 100 225.5t251 92.5q163 0 247-82t84-239v-531q0-159 29-238v-12h-118q-15 52-20 150-50-81-128.5-125.5t-170.5-44.5q-140 0-218 79t-78 225zM214 1395q0 35 21.5 58.5t60.5 23.5q38 0 60.5-23.5t22.5-58.5q0-34-22.5-57t-60.5-23q-39 0-60.5 23t-21.5 57zM217 293q0-206 198-206 98 0 173.5 51t110.5 136v263h-176q-152-2-229-67.5t-77-176.5zM651 1394q0 35 22 58.5t60 23.5q39 0 61-23.5t22-58.5q0-34-22-57t-61-23q-38 0-60 23t-22 57z" horiz-adv-x="964" unicode="&#xe4;"/><glyph d="M105 284q0 159 108.5 252t299.5 94h186v151q0 116-57.5 166.5t-168.5 50.5q-103 0-169-60t-66-155l-111 1q0 133 100 225.5t251 92.5q163 0 247-82t84-239v-531q0-159 29-238v-12h-118q-15 52-20 150-50-81-128.5-125.5t-170.5-44.5q-140 0-218 79t-78 225zM217 293q0-206 198-206 98 0 173.5 51t110.5 136v263h-176q-152-2-229-67.5t-77-176.5zM315 1401q0 80 56 136t137 56 137-56 56-136q0-79-55-133t-138-54-138 54-55 133zM392 1401q0-49 33-82t83-33q48 0 82.5 32.5t34.5 82.5q0 53-34 86t-83 33q-51 0-83.5-34t-32.5-85z" horiz-adv-x="964" unicode="&#xe5;"/><glyph d="M90 294q0 160 96 249t276 89h209v88q0 131-51.5 204.5t-154.5 73.5q-109 0-175-65.5t-66-167.5l-110 13q0 143 98 233.5t253 90.5q103 0 177.5-51t109.5-153q51 96 129 150t174 54q166 0 262-121.5t96-346.5v-98h-631v-26q0-200 79-313.5t221-113.5q153 0 271 118l42-90q-54-64-136-97.5t-177-33.5q-116 0-200 53.5t-135 148.5q-51-96-146.5-149t-212.5-53q-140 0-219 83t-79 231zM202 290q0-93 51-150.5t153-57.5q74 0 150.5 44.5t114.5 105.5v302h-213q-116-1-186-68.5t-70-175.5zM785 636h518v31q0 155-66 243t-182 88q-110 0-182.5-98.5t-87.5-263.5z" horiz-adv-x="1494" unicode="&#xe6;"/><glyph d="M98 470v132q0 248 98.5 374t292.5 126q161 0 254-101.5t99-283.5h-107q-5 134-68 207.5t-178 73.5q-144 0-211.5-97t-67.5-298v-123q0-208 68-302.5t212-94.5q116 0 178 65t67 187h107q-8-166-106-260.5t-246-94.5q-193 0-291.5 123.5t-100.5 366.5zM389-365q71 0 117.5 31t46.5 88q0 51-29.5 75.5t-116.5 33.5l25 128h85l-10-64q136-22 136-171 0-91-66-145.5t-182-54.5z" horiz-adv-x="929" unicode="&#xe7;"/><glyph d="M96 461v132q0 238 104 373.5t286 135.5q176 0 268.5-115t94.5-352v-104h-643v-61q0-186 79.5-287t224.5-101q160 0 259 117l58-74q-106-145-322-145-191 0-299 125t-110 356zM207 635h531v29q-8 334-252 334-131 0-201.5-92.5t-77.5-270.5zM234 1525h144l191-280h-109z" horiz-adv-x="937" unicode="&#xe8;"/><glyph d="M96 461v132q0 238 104 373.5t286 135.5q176 0 268.5-115t94.5-352v-104h-643v-61q0-186 79.5-287t224.5-101q160 0 259 117l58-74q-106-145-322-145-191 0-299 125t-110 356zM207 635h531v29q-8 334-252 334-131 0-201.5-92.5t-77.5-270.5zM424 1245l191 280h145l-231-280h-105z" horiz-adv-x="937" unicode="&#xe9;"/><glyph d="M96 461v132q0 238 104 373.5t286 135.5q176 0 268.5-115t94.5-352v-104h-643v-61q0-186 79.5-287t224.5-101q160 0 259 117l58-74q-106-145-322-145-191 0-299 125t-110 356zM207 635h531v29q-8 334-252 334-131 0-201.5-92.5t-77.5-270.5zM259 1258v12l201 256h69l204-258v-10h-100l-138 182-138-182h-98z" horiz-adv-x="937" unicode="&#xea;"/><glyph d="M96 461v132q0 238 104 373.5t286 135.5q176 0 268.5-115t94.5-352v-104h-643v-61q0-186 79.5-287t224.5-101q160 0 259 117l58-74q-106-145-322-145-191 0-299 125t-110 356zM202 1395q0 35 21.5 58.5t60.5 23.5q38 0 60.5-23.5t22.5-58.5q0-34-22.5-57t-60.5-23q-39 0-60.5 23t-21.5 57zM207 635h531v29q-8 334-252 334-131 0-201.5-92.5t-77.5-270.5zM639 1394q0 35 22 58.5t60 23.5q39 0 61-23.5t22-58.5q0-34-22-57t-61-23q-38 0-60 23t-22 57z" horiz-adv-x="937" unicode="&#xeb;"/><glyph d="M-43 1513h144l191-280h-109zM159 0v1082h111v-1082h-111z" horiz-adv-x="431" unicode="&#xec;"/><glyph d="M146 1233l191 280h145l-231-280h-105zM159 0v1082h111v-1082h-111z" horiz-adv-x="431" unicode="&#xed;"/><glyph d="M-18 1246v12l201 256h69l204-258v-10h-100l-138 182-138-182h-98zM159 0v1082h111v-1082h-111z" horiz-adv-x="431" unicode="&#xee;"/><glyph d="M-75 1383q0 35 21.5 58.5t60.5 23.5q38 0 60.5-23.5t22.5-58.5q0-34-22.5-57t-60.5-23q-39 0-60.5 23t-21.5 57zM159 0v1082h111v-1082h-111zM362 1382q0 35 22 58.5t60 23.5q39 0 61-23.5t22-58.5q0-34-22-57t-61-23q-38 0-60 23t-22 57z" horiz-adv-x="431" unicode="&#xef;"/><glyph d="M141 466q0 227 101 363t269 136q81 0 151.5-37t119.5-100q-38 248-173 409l-188-138-46 74 173 128q-119 108-286 171l36 106q202-71 343-209l163 120 46-75-151-111q202-251 209-651v-117q0-159-47.5-286.5t-133.5-198-193-70.5q-111 0-200.5 62.5t-141 175.5-51.5 248zM253 466q0-163 81-272t204-109q116 0 187.5 125t71.5 331v85l-2 60q-36 84-106 128.5t-156 44.5q-132 0-206-104.5t-74-288.5z" horiz-adv-x="1042" unicode="&#xf0;"/><glyph d="M148 0v1082h106l3-172q48 88 122.5 140t169.5 52q283 0 290-377v-725h-110v713q-1 145-51 214t-157 69q-87 0-156.5-65.5t-105.5-179.5v-751h-111zM221 1274q0 95 47.5 154.5t118.5 59.5q31 0 55-10.5t69.5-46.5 65-44 43.5-8q38 0 64.5 33t26.5 88l80-6q0-95-48-155t-118-60q-44 0-72.5 17t-52 38-48 38-60.5 17q-38 0-64-31.5t-26-86.5z" horiz-adv-x="986" unicode="&#xf1;"/><glyph d="M106 468v128q0 234 106 370t289 136q184 0 289.5-134t106.5-369v-115q0-238-106.5-371t-287.5-133-287 130-110 358zM218 484q0-187 75.5-294t209.5-107q137 0 209.5 103t73.5 295v115q0 187-76 294.5t-209 107.5q-129 0-205-105t-78-289v-120zM239 1525h144l191-280h-109z" horiz-adv-x="1005" unicode="&#xf2;"/><glyph d="M106 468v128q0 234 106 370t289 136q184 0 289.5-134t106.5-369v-115q0-238-106.5-371t-287.5-133-287 130-110 358zM218 484q0-187 75.5-294t209.5-107q137 0 209.5 103t73.5 295v115q0 187-76 294.5t-209 107.5q-129 0-205-105t-78-289v-120zM429 1245l191 280h145l-231-280h-105z" horiz-adv-x="1005" unicode="&#xf3;"/><glyph d="M106 468v128q0 234 106 370t289 136q184 0 289.5-134t106.5-369v-115q0-238-106.5-371t-287.5-133-287 130-110 358zM218 484q0-187 75.5-294t209.5-107q137 0 209.5 103t73.5 295v115q0 187-76 294.5t-209 107.5q-129 0-205-105t-78-289v-120zM264 1258v12l201 256h69l204-258v-10h-100l-138 182-138-182h-98z" horiz-adv-x="1005" unicode="&#xf4;"/><glyph d="M106 468v128q0 234 106 370t289 136q184 0 289.5-134t106.5-369v-115q0-238-106.5-371t-287.5-133-287 130-110 358zM218 484q0-187 75.5-294t209.5-107q137 0 209.5 103t73.5 295v115q0 187-76 294.5t-209 107.5q-129 0-205-105t-78-289v-120zM218 1274q0 95 47.5 154.5t118.5 59.5q31 0 55-10.5t69.5-46.5 65-44 43.5-8q38 0 64.5 33t26.5 88l80-6q0-95-48-155t-118-60q-44 0-72.5 17t-52 38-48 38-60.5 17q-38 0-64-31.5t-26-86.5z" horiz-adv-x="1005" unicode="&#xf5;"/><glyph d="M106 468v128q0 234 106 370t289 136q184 0 289.5-134t106.5-369v-115q0-238-106.5-371t-287.5-133-287 130-110 358zM207 1395q0 35 21.5 58.5t60.5 23.5q38 0 60.5-23.5t22.5-58.5q0-34-22.5-57t-60.5-23q-39 0-60.5 23t-21.5 57zM218 484q0-187 75.5-294t209.5-107q137 0 209.5 103t73.5 295v115q0 187-76 294.5t-209 107.5q-129 0-205-105t-78-289v-120zM644 1394q0 35 22 58.5t60 23.5q39 0 61-23.5t22-58.5q0-34-22-57t-61-23q-38 0-60 23t-22 57z" horiz-adv-x="1005" unicode="&#xf6;"/><glyph d="M80 642v119h839v-119h-839zM430 291q0 35 20 59.5t56 24.5 56.5-24.5 20.5-59.5-20.5-59-56.5-24-56 24-20 59zM430 1088q0 36 20 60.5t56 24.5 56.5-24.5 20.5-60.5q0-35-20.5-58.5t-56.5-23.5-56 23.5-20 58.5z" horiz-adv-x="1019" unicode="&#xf7;"/><glyph d="M95 539v17q0 239 112.5 392.5t293.5 153.5q98 0 178-47l65 158h84l-84-205q79-72 122.5-189t43.5-263v-32q0-239-112-391.5t-295-152.5q-89 0-167 39l-65-158h-84l83 203q-175 148-175 475zM205 524q0-107 27.5-199.5t81.5-154.5l324 785q-62 43-137 43-132 0-214-125.5t-82-326.5v-22zM377 117q56-34 126-34 133 0 214 123.5t81 325.5v24q0 216-100 342z" horiz-adv-x="1001" unicode="&#xf8;"/><glyph d="M145 382v700h110v-697q0-147 52-223t150-76q210 0 269 204v792h112v-1082h-108l-2 129q-92-149-285-149-147 0-222 102t-76 300zM239 1525h144l191-280h-109z" horiz-adv-x="986" unicode="&#xf9;"/><glyph d="M145 382v700h110v-697q0-147 52-223t150-76q210 0 269 204v792h112v-1082h-108l-2 129q-92-149-285-149-147 0-222 102t-76 300zM429 1245l191 280h145l-231-280h-105z" horiz-adv-x="986" unicode="&#xfa;"/><glyph d="M145 382v700h110v-697q0-147 52-223t150-76q210 0 269 204v792h112v-1082h-108l-2 129q-92-149-285-149-147 0-222 102t-76 300zM264 1258v12l201 256h69l204-258v-10h-100l-138 182-138-182h-98z" horiz-adv-x="986" unicode="&#xfb;"/><glyph d="M145 382v700h110v-697q0-147 52-223t150-76q210 0 269 204v792h112v-1082h-108l-2 129q-92-149-285-149-147 0-222 102t-76 300zM207 1395q0 35 21.5 58.5t60.5 23.5q38 0 60.5-23.5t22.5-58.5q0-34-22.5-57t-60.5-23q-39 0-60.5 23t-21.5 57zM644 1394q0 35 22 58.5t60 23.5q39 0 61-23.5t22-58.5q0-34-22-57t-61-23q-38 0-60 23t-22 57z" horiz-adv-x="986" unicode="&#xfc;"/><glyph d="M45 1082h122l269-899 258 899h119l-381-1255-21-60q-77-204-236-204-38 0-80 14l-1 102q23-7 51-7 72 0 118 43t76 139l46 153zM379 1245l191 280h145l-231-280h-105z" horiz-adv-x="857" unicode="&#xfd;"/><glyph d="M152-416v1952h111v-593q98 159 278 159 164 0 257-148t93-408v-16q0-249-94-399.5t-254-150.5q-183 0-280 146v-542h-111zM263 265q75-182 253-182 125 0 194.5 120.5t69.5 347.5q0 206-70.5 325t-195.5 119q-176 0-251-199v-531z" horiz-adv-x="1011" unicode="&#xfe;"/><glyph d="M45 1082h122l269-899 258 899h119l-381-1255-21-60q-77-204-236-204-38 0-80 14l-1 102q23-7 51-7 72 0 118 43t76 139l46 153zM157 1395q0 35 21.5 58.5t60.5 23.5q38 0 60.5-23.5t22.5-58.5q0-34-22.5-57t-60.5-23q-39 0-60.5 23t-21.5 57zM594 1394q0 35 22 58.5t60 23.5q39 0 61-23.5t22-58.5q0-34-22-57t-61-23q-38 0-60 23t-22 57z" horiz-adv-x="857" unicode="&#xff;"/><glyph d="M110 564v316q0 172 56.5 308.5t160.5 212 236 75.5q110 0 260-20h705v-108h-645v-545h564v-106h-564v-591h650v-106h-710q-157-21-258-21-130 0-233.5 73t-161.5 207.5-60 304.5zM221 576q0-227 94-360.5t250-133.5q108 0 204 14v1262q-84 14-206 14-158 0-250-131t-92-363v-302z" horiz-adv-x="1653" unicode="&#x152;"/><glyph d="M99 532v24q0 244 111.5 395t291.5 151q115 0 208-67.5t143-192.5q48 115 136.5 187.5t195.5 72.5q167 0 262.5-121.5t98.5-330.5v-114h-634v-26q0-188 81-307.5t207-119.5q175 0 270 119l48-85q-109-137-318-137-114 0-205.5 68t-142.5 188q-49-118-138-187t-211-69q-182 0-293 150.5t-111 401.5zM211 524q0-194 79-317.5t213-123.5q132 0 211 123.5t79 325.5v24q0 194-80 318t-211 124-211-124-80-327v-23zM916 640h519v29q0 144-68 236.5t-182 92.5q-103 0-177.5-98.5t-91.5-259.5z" horiz-adv-x="1624" unicode="&#x153;"/><glyph d="M39 1456h134l361-792 363 792h131l-438-908v-548h-114v548zM242 1704q0 35 21.5 58.5t60.5 23.5q38 0 60.5-23.5t22.5-58.5q0-34-22.5-57t-60.5-23q-39 0-60.5 23t-21.5 57zM679 1703q0 35 22 58.5t60 23.5q39 0 61-23.5t22-58.5q0-34-22-57t-61-23q-38 0-60 23t-22 57z" horiz-adv-x="1070" unicode="&#x178;"/><glyph d="M156 1258v12l201 256h69l204-258v-10h-100l-138 182-138-182h-98z" horiz-adv-x="793" unicode="&#x2c6;"/><glyph d="M112 1266q0 95 47.5 154.5t118.5 59.5q31 0 55-10.5t69.5-46.5 65-44 43.5-8q38 0 64.5 33t26.5 88l80-6q0-95-48-155t-118-60q-44 0-72.5 17t-52 38-48 38-60.5 17q-38 0-64-31.5t-26-86.5z" horiz-adv-x="800" unicode="&#x2dc;"/><glyph horiz-adv-x="954" unicode="&#x2000;"/><glyph horiz-adv-x="1908" unicode="&#x2001;"/><glyph horiz-adv-x="954" unicode="&#x2002;"/><glyph horiz-adv-x="1908" unicode="&#x2003;"/><glyph horiz-adv-x="636" unicode="&#x2004;"/><glyph horiz-adv-x="477" unicode="&#x2005;"/><glyph horiz-adv-x="318" unicode="&#x2006;"/><glyph horiz-adv-x="318" unicode="&#x2007;"/><glyph horiz-adv-x="238" unicode="&#x2008;"/><glyph horiz-adv-x="381" unicode="&#x2009;"/><glyph horiz-adv-x="106" unicode="&#x200a;"/><glyph d="M59 590v103h404v-103h-404z" horiz-adv-x="529" unicode="&#x2010;"/><glyph d="M59 590v103h404v-103h-404z" horiz-adv-x="529" unicode="&#x2011;"/><glyph d="M59 590v103h404v-103h-404z" horiz-adv-x="529" unicode="&#x2012;"/><glyph d="M151 685v104h841v-104h-841z" horiz-adv-x="1162" unicode="&#x2013;"/><glyph d="M72 685v104h1122v-104h-1122z" horiz-adv-x="1370" unicode="&#x2014;"/><glyph d="M102 1119v97q0 209 123 338l66-52q-76-122-79-252v-131h-110z" horiz-adv-x="353" unicode="&#x2018;"/><glyph d="M70 1150q75 122 78 251v135h110v-100q0-212-123-339z" horiz-adv-x="353" unicode="&#x2019;"/><glyph d="M53-181q75 120 78 251v134h111v-100q0-205-123-337z" horiz-adv-x="345" unicode="&#x201a;"/><glyph d="M104 1119v97q0 209 123 338l66-52q-76-122-79-252v-131h-110zM325 1119v97q0 209 123 338l66-52q-76-122-79-252v-131h-110z" horiz-adv-x="572" unicode="&#x201c;"/><glyph d="M76 1150q75 122 78 251v135h110v-100q0-212-123-339zM291 1150q75 122 78 251v135h110v-100q0-212-123-339z" horiz-adv-x="577" unicode="&#x201d;"/><glyph d="M53-190q75 124 78 260v167h111v-131q0-215-123-349zM260-190q75 124 77 264v163h111v-130q0-219-123-350z" horiz-adv-x="556" unicode="&#x201e;"/><glyph d="M146 720v33q0 79 51 129t134 50q82 0 133-48.5t53-125.5v-40q0-80-50-129t-135-49q-86 0-136 50t-50 130z" horiz-adv-x="662" unicode="&#x2022;"/><glyph d="M160 73q0 36 22.5 60.5t62.5 24.5 63-24.5 23-60.5q0-35-23-58t-63-23-62.5 23-22.5 58zM508 73q0 36 22.5 60.5t62.5 24.5 63-24.5 23-60.5q0-35-23-58t-63-23-62.5 23-22.5 58zM841 73q0 36 22.5 60.5t62.5 24.5 63-24.5 23-60.5q0-35-23-58t-63-23-62.5 23-22.5 58z" horiz-adv-x="1152" unicode="&#x2026;"/><glyph horiz-adv-x="381" unicode="&#x202f;"/><glyph d="M111 546v19l248 379h93l-229-389 229-389h-93z" horiz-adv-x="552" unicode="&#x2039;"/><glyph d="M100 161l229 389-229 394h95l248-384v-19l-248-380h-95z" horiz-adv-x="552" unicode="&#x203a;"/><glyph horiz-adv-x="477" unicode="&#x205f;"/><glyph d="M91 562v90h160v163h-160v92h160q0 266 119 417.5t330 151.5q84 0 197-31l-10-111q-92 35-186 35-161 0-248.5-118.5t-87.5-343.5h346v-92h-346v-163h346v-90h-346v-15q0-220 88.5-341t249.5-121q100 0 184 34l10-109q-96-30-195-30-211 0-330 148.5t-121 410.5v23h-160z" unicode="&#x20ac;"/><glyph d="M109 1386v70h328v-70h-132v-467h-64v467h-132zM505 919v537h80l132-428 132 428h79v-537h-63v415l-126-415h-44l-126 421v-421h-64z" horiz-adv-x="1104" unicode="&#x2122;"/><glyph d="M0 0v1080h1080v-1080h-1080z" horiz-adv-x="1080" unicode="&#x25fc;"/><glyph d="M72 982v100h149v142q2 161 74.5 247t200.5 86q58 0 107-17l-8-102q-44 11-90 11-81 0-126.5-60.5t-45.5-173.5v-133h377v124q3 166 84.5 258.5t223.5 92.5q111 0 233-59l-19-105q-102 52-208 52-203 0-203-252v-111h208v-100h-208v-982h-111v982h-377v-982h-112v982h-149zM1198 0v1082h111v-1082h-111z" horiz-adv-x="1472" unicode="&#xfb03;"/><glyph d="M72 982v100h149v142q2 161 74.5 247t200.5 86q58 0 107-17l-8-102q-44 11-90 11-81 0-126.5-60.5t-45.5-173.5v-133h377v138q1 163 74.5 250t206.5 87q105 0 318-61v-1496h-111v1421q-123 28-199 28-178 0-178-246v-121h213v-100h-213v-982h-111v982h-377v-982h-112v982h-149z" horiz-adv-x="1472" unicode="&#xfb04;"/></font>
</defs>
</svg>
